<?xml version="1.0" encoding="utf-8"?>
<!-- Generator: Adobe Illustrator 26.2.1, SVG Export Plug-In . SVG Version: 6.00 Build 0)  -->
<svg version="1.1" id="Layer_1" xmlns="http://www.w3.org/2000/svg" xmlns:xlink="http://www.w3.org/1999/xlink" x="0px" y="0px"
	 viewBox="0 0 112 112" style="enable-background:new 0 0 112 112;" xml:space="preserve">
<style type="text/css">
	.st0{fill:#15828E;}
	.st1{fill:#FFFFFF;}
</style>
<g>
	<circle class="st0" cx="56" cy="56" r="56"/>
</g>
<g>
	<g transform="translate(-592 -312)">
		<path class="st1" d="M661.3,370c3.93,1.45,7.7,2.99,10.78,5.56c1.45,1.11,2.39,2.91,2.39,4.79l1.62,13.17
			c0.17,1.03-0.34,1.97-1.11,2.57c-1.54,1.03-3.25,1.8-5.05,2.48v1.97c2.14-0.68,4.19-1.62,6.07-2.82c1.37-0.94,2.14-2.57,1.97-4.28
			l-1.62-13c-0.09-2.39-1.2-4.62-3.08-6.16c-3.34-2.74-7.27-4.36-11.37-5.9l-4.53-1.88c-0.68-0.26-1.11-0.94-1.11-1.71v-2.82
			c3.42-2.57,5.47-6.67,5.47-10.95v-2.65c0.51,0.17,0.94,0.34,1.45,0.34s0.94-0.43,0.94-0.94c0-0.09,0-0.17-0.09-0.26l-0.94-2.74
			c-0.43-1.28-0.68-2.57-0.94-3.85c-0.94-4.45-3.76-8.12-7.87-10.09c-0.68-0.34-1.45-0.26-2.05,0.17l-0.26-0.43
			c-0.34-0.6-0.94-0.94-1.62-1.11c-7.1-1.37-13.85,3.16-16.25,10.26c-0.43,1.2-0.6,2.57-0.6,3.85v1.37c0,1.28-0.26,2.57-0.77,3.68
			l-1.71,3.93c-0.17,0.43,0,1.03,0.51,1.2c0.09,0.09,0.26,0.09,0.34,0.09c0.09,0,0.17,0,0.17,0c0.17,0,1.03-0.26,2.39-0.6
			c0.51,3.51,2.48,6.67,5.3,8.81v2.74c0,0.77-0.43,1.37-1.11,1.71l-4.53,1.88c-4.11,1.45-8.04,3.16-11.37,5.82
			c-1.88,1.45-2.99,3.76-3.08,6.16l-1.62,13c-0.17,1.71,0.51,3.34,1.97,4.28c1.88,1.2,3.93,2.14,6.07,2.82v-1.97
			c-1.8-0.6-3.42-1.45-5.05-2.48c-0.86-0.6-1.28-1.54-1.11-2.57l1.62-13.08v-0.09c0-1.88,0.94-3.68,2.39-4.79
			c3.08-2.48,6.76-4.11,10.69-5.56l1.88-0.68c2.48,1.71,6.76,2.74,11.46,2.74s8.98-1.03,11.46-2.74L661.3,370z M634.45,349.31
			c0.6-1.37,0.94-2.91,0.94-4.45v-1.37c0-1.11,0.17-2.22,0.51-3.25c1.8-5.56,6.67-9.24,11.97-9.24c0.68,0,1.45,0.09,2.14,0.17
			c0.17,0.09,0.34,0.17,0.43,0.34l0.86,1.2c0.26,0.43,0.86,0.51,1.28,0.26l0,0l0.77-0.6h0.09c3.59,1.71,6.16,4.96,6.93,8.89l0,0
			c0.26,1.37,0.6,2.74,1.03,4.11l0.34,1.11c-1.97-1.11-4.19-3.93-5.39-5.9c-0.17-0.26-0.43-0.43-0.77-0.43
			c-0.26,0-0.6,0.09-0.77,0.34c-4.53,5.9-16.76,9.75-21.38,11.03L634.45,349.31z M636.24,352.64c5.39-1.62,14.62-5.05,19.24-10.09
			c1.2,1.8,2.74,3.42,4.36,4.79v3.68c0,6.59-5.3,11.89-11.89,11.89C642.06,362.9,637.01,358.54,636.24,352.64L636.24,352.64z
			 M647.96,370.26c-3.25,0.09-6.5-0.51-9.41-1.88l0.77-0.34c1.37-0.6,2.31-1.88,2.22-3.42v-1.54c4.02,2.14,8.81,2.14,12.83,0v1.54
			c0,1.45,0.86,2.82,2.22,3.42l0.77,0.34C654.37,369.66,651.21,370.35,647.96,370.26z"/>
		<path class="st1" d="M668.06,380.78c0-1.8-1.45-3.25-3.25-3.25l0,0h-33.7c-1.8,0-3.25,1.45-3.25,3.25v20.7h-6.41v2.05
			c0,1.8,1.45,3.25,3.25,3.25h46.52c1.8,0,3.25-1.45,3.25-3.25v-2.05h-6.41L668.06,380.78L668.06,380.78z M672.59,403.27v0.26
			c0,0.77-0.6,1.37-1.37,1.37H624.7c-0.77,0-1.37-0.6-1.37-1.37v-0.26h6.41v-22.49c0-0.77,0.6-1.37,1.37-1.37h33.7
			c0.77,0,1.37,0.6,1.37,1.37v22.49H672.59z"/>
	</g>
</g>
</svg>
