<?xml version="1.0" encoding="utf-8"?>
<!-- Generator: Adobe Illustrator 26.2.1, SVG Export Plug-In . SVG Version: 6.00 Build 0)  -->
<svg version="1.1" id="Layer_1" xmlns="http://www.w3.org/2000/svg" xmlns:xlink="http://www.w3.org/1999/xlink" x="0px" y="0px"
	 viewBox="0 0 112 112" style="enable-background:new 0 0 112 112;" xml:space="preserve">
<style type="text/css">
	.st0{fill:#15828E;}
	.st1{fill:#FFFFFF;}
	.st2{fill:none;stroke:#FFFFFF;stroke-width:3;stroke-miterlimit:10;}
</style>
<g>
	<circle class="st0" cx="56" cy="55.75" r="56"/>
</g>
<g>
	<g>
		<polygon class="st1" points="57,41.25 34,41.25 34,45.25 57,45.25 57,41.25 		"/>
	</g>
	<g>
		<polygon class="st1" points="57,58.25 34,58.25 34,62.25 57,62.25 57,58.25 		"/>
	</g>
	<g>
		<polygon class="st1" points="57,75.25 34,75.25 34,79.25 57,79.25 57,75.25 		"/>
	</g>
	<g>
		<path class="st1" d="M69,21.25v5v3h3h15v61H25v-61h19h3v-3v-5H69 M72,18.25H44v8H22v67h68v-67H72V18.25L72,18.25z"/>
	</g>
	<polyline class="st2" points="67.81,41.88 72.2,46.26 81.48,36.56 	"/>
	<g>
		<line class="st2" x1="69.15" y1="54.25" x2="80.15" y2="65.25"/>
		<line class="st2" x1="80.15" y1="54.25" x2="69.15" y2="65.25"/>
	</g>
	<g>
		<line class="st2" x1="69.15" y1="72.25" x2="80.15" y2="83.25"/>
		<line class="st2" x1="80.15" y1="72.25" x2="69.15" y2="83.25"/>
	</g>
</g>
</svg>
