<svg width="350" height="350" xmlns="http://www.w3.org/2000/svg" xmlns:xlink="http://www.w3.org/1999/xlink" overflow="hidden"><defs><clipPath id="clip0"><rect x="592" y="312" width="350" height="350"/></clipPath></defs><g clip-path="url(#clip0)" transform="translate(-592 -312)"><path d="M679.5 457.852C697.622 457.852 712.312 443.161 712.312 425.039 712.312 406.917 697.622 392.227 679.5 392.227 661.378 392.227 646.688 406.917 646.688 425.039 646.688 443.161 661.378 457.852 679.5 457.852ZM679.5 399.5C693.595 399.5 705.021 410.926 705.021 425.021 705.021 439.116 693.595 450.542 679.5 450.542 665.405 450.542 653.979 439.116 653.979 425.021 653.997 410.934 665.413 399.518 679.5 399.5Z" fill="#FFFFFF" fill-rule="nonzero" fill-opacity="1"/><path d="M854.5 457.852C872.622 457.852 887.312 443.161 887.312 425.039 887.312 406.917 872.622 392.227 854.5 392.227 836.378 392.227 821.688 406.917 821.688 425.039 821.688 443.161 836.378 457.852 854.5 457.852ZM854.5 399.5C868.595 399.5 880.021 410.926 880.021 425.021 880.021 439.116 868.595 450.542 854.5 450.542 840.405 450.542 828.979 439.116 828.979 425.021 828.997 410.934 840.413 399.518 854.5 399.5Z" fill="#FFFFFF" fill-rule="nonzero" fill-opacity="1"/><path d="M912.469 485.137C903.176 477.891 892.419 472.751 880.943 470.076 872.352 467.51 863.462 466.079 854.5 465.818 845.543 465.827 836.645 467.258 828.137 470.058 822.088 471.624 816.231 473.855 810.673 476.711 810.584 479.71 810.183 482.691 809.478 485.607 815.961 481.837 822.924 478.96 830.179 477.054 838.029 474.475 846.236 473.144 854.5 473.109 862.835 473.378 871.099 474.726 879.088 477.12 889.59 479.534 899.435 484.22 907.933 490.846L908.247 491.08C911.246 493.242 912.966 496.759 912.833 500.453L912.833 527.797 920.125 527.797 920.125 500.453C920.258 494.397 917.393 488.665 912.469 485.137Z" fill="#FFFFFF" fill-rule="nonzero" fill-opacity="1"/><path d="M724.369 485.042C723.706 482.161 723.339 479.219 723.276 476.263 717.712 473.636 711.904 471.56 705.936 470.065 697.347 467.504 688.459 466.076 679.5 465.818 670.543 465.827 661.645 467.258 653.137 470.058 641.726 473.169 630.971 478.319 621.393 485.257 616.676 488.888 613.91 494.501 613.904 500.453L613.904 527.797 621.196 527.797 621.196 500.453C621.203 496.774 622.909 493.305 625.819 491.054 634.69 484.662 644.641 479.92 655.193 477.054 663.039 474.476 671.241 473.145 679.5 473.109 687.835 473.378 696.099 474.726 704.088 477.12 711.168 478.855 717.987 481.519 724.369 485.042Z" fill="#FFFFFF" fill-rule="nonzero" fill-opacity="1"/><path d="M824.969 535.49C815.677 528.242 804.92 523.103 793.443 520.429 784.852 517.863 775.962 516.431 767 516.167 758.046 516.175 749.15 517.607 740.644 520.407 729.232 523.516 718.477 528.665 708.9 535.606 704.168 539.228 701.388 544.843 701.375 550.802L701.375 578.146 708.667 578.146 708.667 550.802C708.673 547.122 710.381 543.653 713.293 541.403 722.163 535.01 732.112 530.267 742.664 527.403 750.519 524.822 758.732 523.491 767 523.458 775.336 523.726 783.602 525.073 791.591 527.469 802.093 529.88 811.938 534.564 820.433 541.192L820.747 541.425C823.746 543.588 825.467 547.107 825.333 550.802L825.333 578.146 832.625 578.146 832.625 550.802C832.757 544.747 829.892 539.017 824.969 535.49Z" fill="#FFFFFF" fill-rule="nonzero" fill-opacity="1"/><path d="M767 508.201C785.122 508.201 799.812 493.51 799.812 475.388 799.812 457.266 785.122 442.576 767 442.576 748.878 442.576 734.188 457.266 734.188 475.388 734.188 493.51 748.878 508.201 767 508.201ZM767 449.867C781.095 449.867 792.521 461.293 792.521 475.388 792.521 489.483 781.095 500.909 767 500.909 752.905 500.909 741.479 489.483 741.479 475.388 741.489 461.294 752.906 449.869 767 449.849Z" fill="#FFFFFF" fill-rule="nonzero" fill-opacity="1"/></g></svg>